<svg width="17" height="18" viewBox="0 0 17 18" fill="none" xmlns="http://www.w3.org/2000/svg">
<path d="M8.5 4.60742C6.125 4.60742 4.23242 6.53711 4.23242 8.875C4.23242 11.25 6.125 13.1426 8.5 13.1426C10.8379 13.1426 12.7676 11.25 12.7676 8.875C12.7676 6.53711 10.8379 4.60742 8.5 4.60742ZM8.5 11.6582C6.97852 11.6582 5.7168 10.4336 5.7168 8.875C5.7168 7.35352 6.94141 6.12891 8.5 6.12891C10.0215 6.12891 11.2461 7.35352 11.2461 8.875C11.2461 10.4336 10.0215 11.6582 8.5 11.6582ZM13.918 4.45898C13.918 3.90234 13.4727 3.45703 12.916 3.45703C12.3594 3.45703 11.9141 3.90234 11.9141 4.45898C11.9141 5.01562 12.3594 5.46094 12.916 5.46094C13.4727 5.46094 13.918 5.01562 13.918 4.45898ZM16.7383 5.46094C16.6641 4.125 16.3672 2.9375 15.4023 1.97266C14.4375 1.00781 13.25 0.710938 11.9141 0.636719C10.541 0.5625 6.42188 0.5625 5.04883 0.636719C3.71289 0.710938 2.5625 1.00781 1.56055 1.97266C0.595703 2.9375 0.298828 4.125 0.224609 5.46094C0.150391 6.83398 0.150391 10.9531 0.224609 12.3262C0.298828 13.6621 0.595703 14.8125 1.56055 15.8145C2.5625 16.7793 3.71289 17.0762 5.04883 17.1504C6.42188 17.2246 10.541 17.2246 11.9141 17.1504C13.25 17.0762 14.4375 16.7793 15.4023 15.8145C16.3672 14.8125 16.6641 13.6621 16.7383 12.3262C16.8125 10.9531 16.8125 6.83398 16.7383 5.46094ZM14.957 13.7734C14.6973 14.5156 14.1035 15.0723 13.3984 15.3691C12.2852 15.8145 9.6875 15.7031 8.5 15.7031C7.27539 15.7031 4.67773 15.8145 3.60156 15.3691C2.85938 15.0723 2.30273 14.5156 2.00586 13.7734C1.56055 12.6973 1.67188 10.0996 1.67188 8.875C1.67188 7.6875 1.56055 5.08984 2.00586 3.97656C2.30273 3.27148 2.85938 2.71484 3.60156 2.41797C4.67773 1.97266 7.27539 2.08398 8.5 2.08398C9.6875 2.08398 12.2852 1.97266 13.3984 2.41797C14.1035 2.67773 14.6602 3.27148 14.957 3.97656C15.4023 5.08984 15.291 7.6875 15.291 8.875C15.291 10.0996 15.4023 12.6973 14.957 13.7734Z" fill="white"/>
</svg>
